<?xml version="1.0" encoding="iso-8859-1"?>
<!-- Generator: Adobe Illustrator 16.0.0, SVG Export Plug-In . SVG Version: 6.00 Build 0)  -->
<!DOCTYPE svg PUBLIC "-//W3C//DTD SVG 1.1//EN" "http://www.w3.org/Graphics/SVG/1.1/DTD/svg11.dtd">
<svg version="1.1" id="Capa_1" xmlns="http://www.w3.org/2000/svg" xmlns:xlink="http://www.w3.org/1999/xlink" x="0px" y="0px"
	 width="76.157px" height="76.157px" viewBox="0 0 76.157 76.157" style="enable-background:new 0 0 76.157 76.157;"
	 xml:space="preserve">
<g>
	<g>
		<path d="M75.556,42.231L61.737,28.415v-9.113c0-1.135-0.921-2.055-2.056-2.055c-1.137,0-2.058,0.92-2.058,2.055v5.002
			l-9.749-9.748c-0.801-0.803-2.104-0.803-2.904,0L34.537,24.991c0.34,0.205,0.662,0.444,0.949,0.729l2.076,2.058l8.863-8.861
			l26.223,26.225c0.402,0.399,0.928,0.603,1.453,0.603c0.524,0,1.053-0.2,1.453-0.603C76.357,44.337,76.357,43.035,75.556,42.231z"
			/>
		<path d="M69.677,44.592L47.878,22.795c-0.384-0.385-0.906-0.602-1.451-0.602c-0.547,0-1.068,0.217-1.453,0.602l-6.201,6.2
			l1.309,1.317c0.646,0.652,1.099,1.457,1.308,2.332c0.883,3.664-0.658,8.861-4.771,11.211c-0.893,0.508-2.351,1.112-4.243,1.112
			c0,0,0,0-0.001,0c-0.938-0.001-1.873-0.146-2.798-0.44l-1.224,1.524l7.127,8.894c0.831,1.035,1.208,2.332,1.062,3.648
			c-0.146,1.319-0.796,2.503-1.832,3.333c-0.123,0.101-0.252,0.19-0.384,0.276h3.804c1.377,0,2.705-0.582,3.646-1.599
			c0.854-0.922,1.324-2.121,1.324-3.373v-7.812c0-1.896,1.453-3.479,3.33-3.659c1.877,0.181,3.329,1.763,3.329,3.659v7.812
			c0,1.252,0.472,2.451,1.324,3.373c0.938,1.016,2.269,1.598,3.646,1.598h10.64c2.739,0,4.969-2.229,4.969-4.971V46.601
			c0-0.312-0.029-0.631-0.092-0.943C70.162,45.253,69.968,44.883,69.677,44.592z"/>
		<path d="M24.613,46.058l4.097-5.109c3.071,1.856,5.456,0.951,6.458,0.38c2.886-1.651,4.002-5.439,3.386-8.004
			c-0.092-0.374-0.285-0.699-0.543-0.96c-0.039,0.045-0.076,0.089-0.117,0.132L34.2,36.189c-1.139,1.138-2.981,1.138-4.12,0.001
			l-0.468-0.468c-1.137-1.138-1.137-2.983,0-4.12l3.694-3.694c0.041-0.042,0.087-0.079,0.131-0.118
			c-0.26-0.258-0.586-0.453-0.96-0.542c-2.564-0.618-6.354,0.499-8,3.384c-0.641,1.12-1.697,3.971,1.161,7.575l-3.657,4.562
			l-7.222-9.01c0.912-0.862,1.801-1.726,2.479-2.428c0.437-0.452,0.936-0.672,1.527-0.672c0.489,0,0.863,0.154,0.866,0.154
			c0,0,0,0-0.002,0c0.558,0.255,1.212,0.085,1.572-0.405c0.361-0.491,0.327-1.168-0.08-1.621c-2.071-2.305-4.036-2.787-5.317-2.787
			c-1.558,0-2.568,0.691-2.68,0.771c-0.028,0.021-0.057,0.042-0.083,0.065l-6.576,5.575H4.752c-0.318,0-0.626,0.118-0.862,0.333
			L0.42,35.89C0.159,36.128,0.005,36.464,0,36.819c-0.007,0.354,0.134,0.695,0.388,0.943l5.139,5.009
			c0.25,0.244,0.573,0.364,0.896,0.364c0.31,0,0.617-0.108,0.861-0.33l2.984-2.697c0.256-0.23,0.408-0.555,0.423-0.898l0.075-1.773
			c0.239-0.215,0.576-0.52,0.97-0.877l7.612,9.494l-9.4,11.725c-0.711,0.887-0.568,2.181,0.317,2.891
			c0.379,0.306,0.833,0.452,1.284,0.452c0.603,0,1.198-0.265,1.604-0.771l8.825-11.009l8.017,9.998
			c0.406,0.505,1.003,0.771,1.605,0.771c0.45,0,0.903-0.146,1.284-0.45c0.886-0.71,1.028-2.005,0.316-2.89L24.613,46.058z"/>
	</g>
</g>
<g>
</g>
<g>
</g>
<g>
</g>
<g>
</g>
<g>
</g>
<g>
</g>
<g>
</g>
<g>
</g>
<g>
</g>
<g>
</g>
<g>
</g>
<g>
</g>
<g>
</g>
<g>
</g>
<g>
</g>
</svg>
